<?xml version="1.0" standalone="no"?>
<!DOCTYPE svg PUBLIC "-//W3C//DTD SVG 20010904//EN"
 "http://www.w3.org/TR/2001/REC-SVG-20010904/DTD/svg10.dtd">
<svg version="1.0" xmlns="http://www.w3.org/2000/svg"
 width="900.000000pt" height="489.000000pt" viewBox="0 0 900.000000 489.000000"
 preserveAspectRatio="xMidYMid meet">
<metadata>
Created by potrace 1.10, written by Peter Selinger 2001-2011
</metadata>
<g transform="translate(0.000000,489.000000) scale(0.100000,-0.100000)"
fill="#000000" stroke="none">
<path d="M7270 4880 c0 -6 -16 -28 -36 -48 -46 -47 -60 -81 -41 -99 11 -12 18
-10 41 8 32 25 72 86 82 123 5 23 3 26 -20 26 -14 0 -26 -5 -26 -10z"/>
<path d="M3217 4622 c-10 -10 -17 -23 -17 -29 0 -5 -10 -18 -21 -29 -12 -10
-53 -59 -92 -107 -59 -74 -75 -88 -94 -84 -13 2 -31 -2 -40 -9 -20 -14 -22
-12 33 -29 10 -3 13 -12 9 -24 -8 -27 10 -35 40 -15 23 15 123 141 138 174 9
19 34 58 70 109 28 39 29 61 3 61 -7 0 -20 -8 -29 -18z"/>
<path d="M5320 4376 c-26 -28 -21 -59 7 -49 26 9 63 44 63 60 0 22 -45 15 -70
-11z"/>
<path d="M2837 4305 c-7 -16 8 -29 23 -20 15 9 12 35 -4 35 -8 0 -16 -7 -19
-15z"/>
<path d="M8757 4244 c-8 -8 1 -24 14 -24 5 0 9 7 9 15 0 15 -12 20 -23 9z"/>
<path d="M5126 4152 c-3 -6 -1 -14 5 -17 15 -10 25 3 12 16 -7 7 -13 7 -17 1z"/>
<path d="M5648 4079 c-10 -5 -18 -17 -18 -25 0 -23 40 -13 58 14 13 20 13 22
-4 22 -11 0 -27 -5 -36 -11z"/>
<path d="M8435 3958 c-112 -39 -195 -85 -291 -167 -79 -67 -118 -125 -94 -142
20 -13 98 -3 142 20 65 33 176 121 230 183 63 71 71 85 64 104 -6 16 -9 16
-51 2z"/>
<path d="M6595 3914 c-75 -38 -118 -88 -180 -209 -30 -61 -93 -142 -152 -200
-41 -39 -42 -59 -3 -75 33 -14 28 -16 162 74 89 60 206 176 235 232 40 77 43
204 5 204 -9 0 -39 -12 -67 -26z"/>
<path d="M4118 3808 c-35 -25 -36 -40 -2 -36 31 3 54 32 39 47 -6 6 -20 2 -37
-11z"/>
<path d="M3987 3793 c-14 -13 -6 -24 15 -21 27 4 36 28 11 28 -11 0 -23 -3
-26 -7z"/>
<path d="M5685 3779 c-72 -30 -195 -123 -195 -149 0 -15 52 -12 75 3 11 8 45
22 75 32 82 26 123 50 138 79 7 14 17 26 23 26 5 0 9 7 9 15 0 22 -64 18 -125
-6z"/>
<path d="M5247 3745 c-37 -26 -47 -48 -26 -60 13 -9 109 55 109 73 0 20 -43
14 -83 -13z"/>
<path d="M4754 3711 c-11 -5 -28 -28 -38 -52 -10 -24 -23 -54 -29 -67 -12 -25
-102 -87 -212 -147 -38 -21 -88 -52 -110 -68 -71 -55 -251 -246 -264 -281 -2
-6 -11 -16 -20 -23 -9 -7 -11 -13 -6 -13 6 0 22 11 37 25 37 34 48 31 48 -13
0 -22 6 -52 14 -68 30 -61 29 -77 -9 -119 -19 -22 -35 -45 -35 -51 0 -12 -38
-48 -60 -57 -8 -3 -53 -30 -100 -61 -47 -31 -91 -56 -97 -56 -15 0 -17 16 -3
25 6 3 10 13 10 21 0 34 -129 -3 -144 -41 -11 -30 -6 -35 29 -35 19 0 35 5 35
10 0 6 12 10 28 9 l27 0 -25 -12 c-14 -6 -27 -15 -30 -19 -3 -4 -17 -12 -30
-18 -32 -14 -57 -29 -98 -59 -35 -24 -99 -38 -128 -27 -15 6 -14 10 12 37 23
24 26 33 17 47 -15 26 20 64 85 92 12 5 22 14 22 19 0 5 8 11 18 15 9 3 31 15
47 26 42 28 72 40 99 40 26 0 82 22 107 42 28 23 47 62 54 112 6 45 5 48 -12
41 -10 -4 -43 -12 -73 -17 -81 -13 -150 -76 -150 -136 0 -18 -55 -74 -85 -85
-8 -4 -15 -11 -15 -17 0 -5 -6 -10 -12 -10 -7 0 -31 -16 -52 -35 -22 -19 -43
-35 -46 -35 -4 0 -20 -10 -35 -22 -16 -12 -54 -31 -84 -41 -122 -40 -177 -78
-221 -152 -14 -22 -37 -52 -52 -67 -15 -15 -24 -30 -18 -33 5 -3 12 0 17 7 9
14 69 38 96 38 19 0 23 -25 5 -36 -6 -4 -25 -10 -42 -13 -22 -5 -36 -16 -48
-41 -17 -33 -64 -79 -82 -80 -5 0 -17 -6 -25 -13 -9 -7 -42 -22 -73 -32 -32
-11 -58 -22 -58 -26 0 -4 -18 -17 -41 -28 -30 -16 -50 -20 -76 -15 l-34 7 32
33 c27 28 41 34 74 34 22 0 49 6 60 14 11 7 33 16 48 20 16 4 36 19 45 36 9
16 27 34 39 39 40 18 25 28 -37 24 -37 -2 -77 -12 -108 -28 -28 -14 -53 -25
-58 -25 -4 0 -49 -20 -99 -45 -101 -49 -176 -74 -305 -99 -47 -10 -104 -23
-127 -31 -44 -14 -61 -7 -46 19 11 20 135 148 168 174 16 12 25 25 22 29 -4 3
-26 -12 -50 -33 -24 -21 -62 -53 -83 -70 -21 -18 -59 -48 -82 -68 -48 -39 -54
-41 -83 -26 -24 13 -24 34 -1 58 171 180 227 232 250 232 6 0 26 18 46 41 19
23 39 38 44 35 6 -3 8 2 5 14 -3 12 1 22 11 26 9 3 16 12 16 20 0 8 4 14 9 14
5 0 29 19 53 42 24 23 63 57 88 77 85 68 240 218 240 233 0 4 -7 8 -15 8 -8 0
-15 -4 -15 -10 0 -15 -192 -200 -209 -200 -3 0 -28 -21 -54 -45 -26 -25 -50
-45 -54 -45 -3 0 -11 -6 -17 -14 -18 -22 -325 -248 -421 -310 -49 -32 -106
-69 -125 -83 -67 -48 -137 -92 -201 -126 -118 -63 -134 -72 -176 -100 -24 -15
-45 -27 -48 -27 -3 0 -54 -23 -113 -51 -81 -38 -119 -63 -157 -102 -40 -42
-62 -56 -112 -71 -77 -24 -97 -18 -88 26 8 42 65 94 111 103 19 3 38 13 41 21
3 9 16 20 29 24 16 6 22 15 18 25 -5 11 -2 14 11 9 14 -6 16 -3 11 13 -5 17 2
26 41 51 56 35 119 90 111 97 -7 8 -38 -5 -38 -16 0 -5 -6 -9 -14 -9 -8 0 -16
-7 -20 -15 -3 -8 -10 -15 -16 -15 -7 0 -38 -20 -70 -45 -32 -25 -61 -45 -65
-45 -3 0 -42 -27 -86 -60 l-79 -61 -82 3 c-54 2 -83 7 -86 16 -6 18 154 182
226 231 34 23 77 56 95 72 17 17 46 36 62 43 17 7 53 36 80 64 28 28 54 52 59
52 4 0 25 14 46 30 21 17 43 30 48 30 6 0 15 6 19 13 4 8 23 24 40 37 18 13
33 27 33 32 0 16 -20 8 -48 -19 -32 -31 -57 -49 -87 -62 -11 -5 -31 -20 -44
-33 -23 -21 -88 -68 -253 -183 -41 -28 -76 -45 -89 -43 -20 3 -18 6 17 38 68
62 204 204 216 225 6 11 8 18 5 15 -42 -37 -164 -149 -217 -200 -37 -36 -88
-83 -111 -105 -49 -45 -134 -105 -150 -105 -6 0 -23 -6 -37 -14 -48 -26 -125
-46 -176 -46 -54 0 -158 -28 -178 -48 -7 -7 -17 -12 -23 -12 -16 0 -60 -49
-85 -95 -11 -22 -37 -62 -56 -89 -28 -40 -33 -54 -28 -82 5 -27 1 -40 -20 -65
-35 -42 -35 -94 0 -133 23 -24 33 -27 64 -23 21 3 47 -1 61 -9 13 -7 43 -13
67 -14 24 0 57 -7 75 -17 47 -24 249 -24 295 0 76 40 91 47 107 47 9 0 29 7
45 15 25 13 34 13 77 0 26 -8 58 -15 71 -15 17 0 27 -9 38 -35 16 -39 50 -53
82 -36 29 16 139 13 196 -4 27 -8 87 -15 134 -15 79 0 86 2 124 31 l39 31 122
-5 c67 -2 199 -10 292 -16 399 -26 812 -41 1125 -42 359 0 417 -5 439 -38 10
-16 24 -21 59 -21 46 0 132 -26 132 -40 0 -4 -14 -18 -30 -31 -35 -28 -70 -79
-70 -103 0 -9 10 -30 21 -46 l22 -28 -44 -42 c-51 -49 -107 -87 -142 -96 -14
-3 -28 -12 -31 -20 -3 -8 -16 -14 -29 -14 -14 0 -30 -7 -37 -15 -7 -8 -21 -15
-30 -15 -28 0 -51 -11 -44 -21 8 -14 48 -11 70 6 10 8 27 15 36 15 9 0 29 6
45 14 45 22 95 38 148 46 68 11 120 35 174 80 53 43 169 100 206 100 24 0 25
-3 25 -54 0 -65 7 -86 28 -86 18 0 72 39 129 93 49 47 102 61 147 39 23 -11
37 -12 65 -4 20 6 55 8 77 5 27 -3 60 1 93 12 32 10 105 20 190 24 75 4 142
11 149 15 6 3 41 11 79 16 133 19 277 70 378 136 28 18 81 62 119 98 38 36 73
66 77 66 4 0 51 30 104 68 52 37 107 73 120 80 14 7 25 17 25 23 0 5 9 9 20 9
11 0 23 6 26 14 3 8 15 17 27 20 18 4 19 8 9 18 -11 11 -16 10 -25 -3 -7 -9
-22 -19 -35 -23 -12 -4 -22 -12 -22 -17 0 -5 -9 -9 -19 -9 -11 0 -26 -7 -35
-15 -8 -8 -20 -15 -26 -15 -6 0 -22 -7 -35 -16 -13 -9 -29 -13 -35 -9 -17 11
17 43 75 72 71 35 95 49 108 62 6 6 19 11 29 11 10 0 18 5 18 10 0 6 11 15 25
20 14 5 25 14 25 20 0 15 -26 12 -40 -5 -7 -8 -20 -15 -30 -15 -10 0 -23 -7
-30 -15 -7 -8 -20 -15 -30 -15 -10 0 -23 -7 -30 -15 -7 -8 -20 -15 -30 -15
-10 0 -31 -7 -46 -15 -33 -17 -114 -20 -114 -5 0 16 125 130 215 194 46 34
118 85 159 115 42 30 92 70 111 88 78 73 -38 17 -191 -93 -60 -43 -111 -81
-114 -84 -3 -3 -30 -23 -61 -44 -58 -38 -91 -44 -97 -15 -4 22 93 134 134 154
18 8 36 20 39 25 3 6 15 10 25 10 10 0 23 6 27 13 9 14 37 32 71 47 12 5 22
14 22 20 0 5 6 10 14 10 17 0 31 18 22 27 -3 4 -14 -1 -23 -9 -10 -9 -28 -19
-40 -22 -13 -4 -23 -12 -23 -17 0 -5 -8 -9 -19 -9 -10 0 -24 -7 -31 -15 -7 -8
-17 -15 -23 -15 -6 0 -18 -7 -28 -16 -22 -20 -39 -11 -39 21 0 23 53 74 93 88
21 8 22 30 2 47 -8 7 -15 18 -15 25 0 12 143 114 190 135 36 16 70 36 83 49 6
6 31 11 54 11 94 0 183 78 183 161 0 23 -9 40 -34 63 l-33 32 26 37 c14 20 29
37 34 37 11 0 47 39 47 50 0 21 -6 17 -143 -115 -23 -22 -64 -58 -92 -80 -73
-57 -132 -120 -170 -180 -34 -52 -69 -80 -275 -215 -37 -25 -110 -73 -161
-108 -94 -64 -114 -70 -114 -37 0 19 29 43 135 115 28 19 57 40 63 46 7 5 20
13 30 17 9 3 17 11 17 17 0 5 5 10 10 10 14 0 70 42 70 52 0 13 -17 9 -34 -7
-8 -8 -17 -15 -21 -15 -3 0 -22 -12 -40 -26 -19 -14 -49 -34 -67 -43 -18 -10
-55 -30 -82 -45 -27 -15 -68 -34 -90 -41 -37 -13 -42 -13 -53 2 -11 14 -10 20
5 36 19 22 144 126 171 142 72 45 89 65 54 65 -10 0 -32 -14 -50 -30 -18 -17
-34 -30 -36 -30 -3 0 -29 -16 -58 -36 -200 -134 -272 -99 -145 71 39 52 90
102 146 145 25 19 64 51 87 71 24 20 115 73 204 118 89 45 187 96 218 113 31
17 99 53 151 80 127 65 122 62 228 152 111 95 132 126 132 193 0 90 -53 106
-168 51 -110 -54 -350 -305 -381 -400 -7 -20 -24 -44 -39 -54 -28 -19 -36 -23
-182 -101 -122 -65 -181 -106 -267 -187 -84 -79 -112 -100 -119 -93 -3 3 -1
13 4 24 41 79 53 133 29 133 -7 0 -30 -9 -51 -20 -24 -12 -49 -17 -66 -14 -23
5 -36 -3 -93 -60 -37 -37 -75 -66 -86 -66 -11 0 -22 -4 -25 -9 -4 -5 -25 -12
-49 -16 -129 -20 -258 -71 -337 -134 -25 -20 -112 -103 -195 -186 -115 -115
-165 -158 -215 -184 -36 -18 -94 -49 -129 -67 -35 -19 -70 -34 -77 -34 -7 0
-28 -6 -46 -14 -18 -8 -51 -21 -73 -29 -22 -8 -73 -29 -114 -46 -82 -35 -91
-36 -137 -19 -30 10 -37 9 -71 -15 -22 -15 -49 -27 -62 -27 -12 0 -32 -5 -44
-12 -12 -6 -53 -15 -92 -19 -38 -4 -99 -12 -135 -18 -36 -5 -116 -12 -177 -14
-92 -4 -113 -2 -113 9 0 16 -26 19 -35 4 -3 -5 -17 -10 -30 -10 -12 0 -25 -7
-28 -15 -4 -10 -20 -14 -49 -13 -24 1 -108 -4 -188 -12 -91 -8 -291 -14 -540
-14 l-395 -1 -3 22 c-4 27 42 77 63 69 23 -9 45 4 45 26 0 21 52 73 83 84 9 3
17 9 17 14 0 5 31 18 70 30 38 12 93 35 122 51 29 16 63 29 75 29 29 0 147 52
208 91 17 10 39 23 50 29 58 30 103 59 127 81 15 14 51 38 80 53 29 15 67 36
83 47 17 10 37 22 45 25 8 4 57 26 107 50 51 24 97 44 101 44 5 0 45 26 90 59
45 32 95 64 112 71 28 12 32 10 70 -24 29 -26 47 -35 63 -31 12 3 42 9 67 14
167 34 455 207 455 273 0 16 21 33 85 69 46 27 93 49 103 49 10 0 56 17 101
39 44 21 91 41 104 45 12 4 35 19 49 32 15 13 38 27 52 30 14 3 35 10 46 15
20 8 93 35 128 46 9 3 17 12 17 20 0 25 -62 12 -241 -49 -36 -13 -82 -38 -103
-55 -21 -19 -48 -33 -62 -33 -14 0 -43 -10 -64 -22 -30 -17 -44 -20 -56 -13
-9 6 -17 15 -17 20 0 6 41 31 91 57 50 25 117 66 149 90 32 23 67 48 78 54 22
12 32 41 18 55 -5 5 -46 4 -97 -3 -126 -16 -130 -6 -33 88 91 90 101 121 40
126 -33 3 -38 6 -36 26 3 26 4 26 -38 8 -19 -8 -47 -31 -63 -51 -24 -29 -76
-65 -93 -65 -35 0 180 203 247 233 8 4 31 17 50 28 103 63 228 121 288 135 37
9 75 23 85 31 24 22 23 94 -2 117 -22 20 -78 29 -107 17z m486 -1440 c-10 -20
-39 -35 -48 -26 -8 8 40 55 49 49 5 -3 5 -13 -1 -23z m767 -176 c-10 -7 -17
-15 -17 -19 0 -11 -138 -135 -210 -188 -40 -30 -125 -62 -140 -53 -25 15 -7
43 53 79 100 61 188 118 251 163 32 24 63 40 69 36 6 -4 4 -11 -6 -18z m-3257
-17 c-1 -17 -137 -80 -164 -76 -11 2 -22 11 -24 21 -3 13 3 17 25 18 15 0 46
11 68 24 44 25 95 32 95 13z m1295 -897 c3 -5 0 -13 -5 -16 -16 -10 -62 4 -55
15 8 13 52 13 60 1z m192 -67 c2 -6 -4 -14 -14 -17 -10 -3 -51 -24 -91 -47
-73 -41 -92 -43 -92 -13 0 20 38 63 56 63 6 0 17 7 24 15 15 19 111 17 117 -1z"/>
<path d="M5000 3711 c-53 -22 -80 -61 -42 -61 25 1 79 47 67 59 -6 5 -17 6
-25 2z"/>
<path d="M3830 3690 c0 -5 -7 -10 -15 -10 -20 0 -90 -44 -141 -89 -22 -20 -65
-56 -95 -81 -174 -144 -268 -259 -225 -276 9 -4 39 13 76 41 60 46 91 55 55
15 -19 -21 -14 -50 9 -50 23 0 67 21 106 51 48 36 89 49 118 36 30 -14 28 -43
-8 -97 -21 -32 -30 -57 -30 -87 0 -24 4 -43 8 -43 4 0 25 17 45 38 27 28 37
46 37 70 0 18 13 53 29 79 31 49 33 65 7 44 -18 -15 -36 -6 -36 18 0 10 -7 24
-15 31 -26 22 -16 45 45 104 33 31 58 61 55 67 -14 22 -50 5 -106 -51 -32 -33
-63 -60 -68 -60 -5 0 -40 -21 -76 -46 -37 -25 -70 -43 -73 -39 -3 3 69 80 161
172 92 92 167 168 167 170 0 2 -7 3 -15 3 -8 0 -15 -4 -15 -10z"/>
<path d="M8970 3670 c0 -5 7 -10 15 -10 8 0 15 5 15 10 0 6 -7 10 -15 10 -8 0
-15 -4 -15 -10z"/>
<path d="M4065 3611 c-7 -12 12 -24 25 -16 11 7 4 25 -10 25 -5 0 -11 -4 -15
-9z"/>
<path d="M7530 3603 c-19 -8 -42 -19 -50 -24 -8 -5 -22 -12 -30 -16 -8 -3 -41
-26 -72 -50 -82 -62 -136 -133 -167 -218 -13 -36 6 -97 36 -113 20 -11 89 12
151 52 21 13 45 25 53 27 32 9 157 107 182 144 15 22 43 62 62 90 41 59 43 74
12 103 -19 18 -35 22 -83 21 -32 0 -75 -7 -94 -16z"/>
<path d="M8828 3558 c-22 -18 -29 -45 -13 -51 14 -6 55 32 55 51 0 16 -22 15
-42 0z"/>
<path d="M3946 3506 c-48 -15 -86 -57 -86 -97 0 -31 6 -33 58 -23 37 7 112 69
112 91 0 14 -28 43 -40 42 -3 -1 -22 -7 -44 -13z"/>
<path d="M1958 3440 c-23 -14 -24 -66 -2 -74 21 -8 71 20 79 45 4 11 5 22 3
25 -11 10 -65 13 -80 4z"/>
<path d="M5900 3423 c-14 -9 -53 -44 -87 -77 -58 -56 -63 -64 -63 -104 0 -67
-24 -99 -90 -119 -69 -21 -109 -55 -90 -77 7 -9 22 -16 34 -16 34 0 108 29
144 56 28 22 32 31 32 73 0 54 12 71 53 71 16 0 44 9 62 20 42 26 95 88 95
112 0 10 5 18 10 18 15 0 12 17 -7 40 -21 24 -59 25 -93 3z"/>
<path d="M2493 3382 c-10 -10 -34 -37 -53 -60 -19 -23 -43 -42 -52 -42 -32 0
-19 -15 15 -16 17 -1 42 -5 54 -9 39 -13 101 72 88 122 -7 28 -29 30 -52 5z"/>
<path d="M6158 3383 c-30 -15 -37 -33 -14 -33 7 0 21 11 30 25 9 14 15 25 14
24 -2 -1 -15 -8 -30 -16z"/>
<path d="M2312 3238 c-35 -22 -39 -28 -19 -28 16 1 63 37 57 44 -3 3 -20 -4
-38 -16z"/>
<path d="M6880 3187 c-72 -35 -125 -78 -161 -129 -19 -26 -43 -58 -54 -71 -24
-26 -129 -107 -165 -125 -40 -21 -153 -129 -141 -136 5 -4 13 -1 18 6 9 14 36
33 69 47 11 5 50 34 85 65 35 31 70 56 76 56 7 0 13 3 13 8 0 17 70 46 130 53
122 15 136 20 198 70 62 50 92 94 92 135 0 48 -84 59 -160 21z"/>
<path d="M2095 3099 c-10 -15 3 -25 16 -12 7 7 7 13 1 17 -6 3 -14 1 -17 -5z"/>
<path d="M3540 3060 c0 -22 1 -23 24 -14 23 9 20 34 -4 34 -13 0 -20 -7 -20
-20z"/>
<path d="M4862 3034 c-25 -17 -29 -34 -9 -34 23 0 78 31 72 41 -9 14 -38 11
-63 -7z"/>
<path d="M3652 3018 c-7 -7 -12 -16 -12 -20 0 -12 28 -10 36 3 10 17 -10 31
-24 17z"/>
<path d="M4083 2915 c-3 -9 -3 -18 0 -21 9 -10 57 8 57 22 0 19 -49 18 -57 -1z"/>
<path d="M5636 2905 c-9 -24 -8 -55 3 -55 13 0 21 41 12 58 -7 12 -9 11 -15
-3z"/>
<path d="M1295 2800 c-8 -12 20 -24 35 -15 6 3 8 11 5 16 -8 12 -32 12 -40 -1z"/>
<path d="M5595 2782 c-24 -33 -45 -71 -45 -83 0 -5 10 -9 23 -9 31 0 71 61 63
95 -8 32 -16 31 -41 -3z"/>
<path d="M5087 2774 c-9 -10 2 -24 19 -24 8 0 14 7 14 15 0 15 -21 21 -33 9z"/>
<path d="M4582 2754 c-24 -17 -21 -34 7 -34 10 0 23 11 29 25 14 30 -1 34 -36
9z"/>
<path d="M1135 2720 c-4 -6 -3 -16 3 -22 6 -6 12 -6 17 2 4 6 3 16 -3 22 -6 6
-12 6 -17 -2z"/>
<path d="M1875 2668 c-30 -18 -54 -51 -55 -75 0 -12 -4 -25 -10 -28 -20 -12
-10 -25 13 -15 12 5 39 11 59 15 40 6 68 35 68 70 0 41 -35 56 -75 33z"/>
<path d="M5498 2626 c-33 -41 -35 -56 -10 -56 25 0 62 41 62 68 0 32 -21 27
-52 -12z"/>
<path d="M6227 2628 c-28 -29 -15 -32 19 -3 18 15 23 25 14 24 -8 0 -23 -10
-33 -21z"/>
<path d="M2877 2594 c-8 -8 1 -24 14 -24 5 0 9 7 9 15 0 15 -12 20 -23 9z"/>
<path d="M1764 2525 c-4 -8 -12 -15 -20 -15 -8 0 -14 -7 -14 -15 0 -8 3 -15 6
-15 9 0 54 44 54 53 0 13 -21 7 -26 -8z"/>
<path d="M6102 2517 c-24 -25 -28 -37 -12 -37 13 0 50 37 50 50 0 17 -15 11
-38 -13z"/>
<path d="M6870 2524 c-66 -18 -119 -51 -154 -97 -30 -39 -33 -59 -11 -77 16
-13 25 -12 115 14 l55 15 22 -27 c38 -46 41 -113 8 -152 -17 -19 -48 -110 -41
-117 3 -3 23 9 46 27 34 27 40 37 40 69 0 28 8 47 30 72 16 19 30 40 30 47 0
8 9 25 20 39 25 32 25 59 0 101 -11 18 -20 39 -20 46 0 15 -33 40 -65 49 -11
3 -45 -1 -75 -9z"/>
<path d="M5944 2392 c-22 -15 -49 -33 -60 -40 -10 -7 -27 -15 -36 -18 -10 -4
-18 -13 -18 -20 0 -23 46 -16 78 11 17 14 38 25 48 25 46 0 64 12 64 41 0 37
-21 38 -76 1z"/>
<path d="M4034 2265 c-20 -20 -23 -29 -14 -45 16 -31 43 -41 71 -27 33 17 37
60 7 81 -30 21 -34 20 -64 -9z"/>
<path d="M7809 2183 c-56 -29 -108 -90 -109 -128 -2 -67 -100 -185 -234 -280
-31 -22 -102 -74 -158 -116 -95 -70 -149 -103 -254 -158 -22 -12 -65 -42 -95
-68 -104 -89 -247 -166 -394 -210 -11 -4 -42 -19 -68 -35 -26 -15 -61 -28 -76
-28 -16 0 -42 -7 -57 -15 -16 -8 -36 -15 -44 -15 -15 0 -71 -62 -69 -77 1 -16
70 -65 102 -72 53 -11 89 1 114 38 13 19 23 47 23 62 0 40 31 64 114 90 39 13
76 27 83 31 6 5 24 13 40 18 15 5 53 18 83 30 60 23 138 49 245 80 67 20 101
41 197 121 39 33 85 61 193 118 22 11 58 37 80 57 57 52 162 136 220 178 49
34 78 50 180 96 91 41 135 98 135 172 -1 52 -26 86 -87 117 -56 28 -99 26
-164 -6z"/>
<path d="M1555 2109 c-4 -6 -5 -13 -2 -16 7 -7 27 6 27 18 0 12 -17 12 -25 -2z"/>
<path d="M6205 2079 c-4 -6 -5 -13 -2 -16 7 -7 27 6 27 18 0 12 -17 12 -25 -2z"/>
<path d="M6797 2017 c-114 -124 -132 -152 -74 -117 54 33 107 91 107 116 0 13
4 24 9 24 5 0 11 7 15 15 10 27 -8 15 -57 -38z"/>
<path d="M6997 2052 c-22 -24 -21 -35 2 -56 27 -25 64 -17 75 16 18 50 -41 80
-77 40z"/>
<path d="M3380 1868 c-16 -22 -30 -47 -30 -54 0 -24 -34 -88 -78 -146 -24 -32
-40 -58 -37 -58 3 0 27 16 52 35 25 19 64 40 87 46 49 13 83 42 102 88 18 44
18 81 -2 109 -25 35 -59 28 -94 -20z"/>
<path d="M6627 1839 c-42 -34 -48 -52 -16 -47 20 3 79 78 61 78 -4 0 -24 -14
-45 -31z"/>
<path d="M6181 1721 c-7 -5 -9 -11 -4 -14 5 -3 15 -2 22 2 7 5 9 11 4 14 -5 3
-15 2 -22 -2z"/>
<path d="M6462 1699 c-13 -5 -20 -13 -17 -19 8 -13 42 -13 51 1 10 17 -9 28
-34 18z"/>
<path d="M6135 1631 c-7 -12 12 -24 25 -16 11 7 4 25 -10 25 -5 0 -11 -4 -15
-9z"/>
<path d="M2155 1580 c-8 -13 3 -30 20 -30 23 0 27 18 6 30 -13 7 -22 7 -26 0z"/>
<path d="M6504 1430 c-27 -11 -54 -48 -54 -75 0 -53 64 -62 103 -15 37 43 43
71 21 87 -20 15 -39 16 -70 3z"/>
<path d="M2648 1209 c-10 -5 -18 -19 -18 -30 0 -16 6 -20 28 -17 21 2 27 8 27
27 0 28 -13 35 -37 20z"/>
<path d="M320 1130 c0 -24 15 -27 24 -4 9 22 8 24 -9 24 -8 0 -15 -9 -15 -20z"/>
<path d="M1653 1103 c-12 -2 -27 -11 -33 -19 -7 -8 -18 -14 -24 -14 -25 0
-155 -131 -194 -197 -22 -37 -77 -105 -121 -151 -45 -45 -81 -87 -81 -93 0
-11 52 26 130 94 25 22 56 43 70 49 39 15 184 115 232 161 80 76 119 157 82
171 -16 6 -24 6 -61 -1z"/>
<path d="M1195 1029 c-10 -15 3 -25 16 -12 7 7 7 13 1 17 -6 3 -14 1 -17 -5z"/>
<path d="M6183 1033 c-7 -2 -13 -9 -13 -14 0 -15 53 -6 58 9 4 12 -21 15 -45
5z"/>
<path d="M2395 1000 c-8 -12 20 -24 35 -15 6 3 8 11 5 16 -8 12 -32 12 -40 -1z"/>
<path d="M6096 995 c-8 -8 -24 -15 -35 -15 -12 0 -29 -4 -39 -9 -61 -33 -105
-51 -123 -51 -22 0 -88 -31 -134 -64 -43 -31 -69 -43 -107 -51 -18 -4 -49 -20
-68 -34 -48 -37 -102 -61 -138 -61 -16 0 -46 -12 -68 -28 -45 -32 -97 -49
-173 -56 -30 -3 -61 -11 -70 -19 -20 -17 -80 -40 -156 -61 -33 -9 -82 -23
-110 -31 -49 -13 -124 -30 -275 -59 -169 -33 -282 -29 -390 14 -87 35 -185 50
-260 40 -68 -9 -126 -7 -137 4 -10 10 -55 7 -48 -4 3 -5 16 -10 28 -10 24 -1
49 -30 62 -70 11 -38 35 -60 90 -86 60 -28 143 -31 280 -10 50 8 128 17 175
20 179 14 281 36 465 100 119 42 250 78 279 75 50 -3 67 3 117 46 50 42 56 45
112 45 50 0 65 5 96 28 45 36 111 62 154 62 24 0 41 9 62 30 26 27 74 48 148
64 16 4 48 25 71 46 24 22 47 40 51 40 4 0 27 14 52 30 24 17 48 30 52 30 5 0
14 6 20 14 6 7 25 16 42 20 17 3 28 10 24 16 -9 15 -31 12 -49 -5z"/>
<path d="M3283 920 c-19 -8 -23 -17 -23 -49 0 -43 29 -75 78 -88 22 -5 116 8
175 24 23 6 22 23 -3 23 -39 0 -116 33 -153 66 -40 37 -41 37 -74 24z"/>
<path d="M2786 838 c-24 -33 -3 -44 33 -17 37 27 39 39 7 39 -14 0 -32 -10
-40 -22z"/>
<path d="M517 717 c-27 -23 -27 -37 0 -37 16 0 73 40 73 52 0 16 -46 7 -73
-15z"/>
<path d="M3467 733 c-13 -12 -7 -23 12 -23 28 0 52 11 45 21 -6 10 -48 12 -57
2z"/>
<path d="M3377 703 c-13 -12 -7 -23 12 -23 26 0 51 10 51 21 0 10 -53 12 -63
2z"/>
<path d="M3291 671 c-10 -6 -10 -10 -1 -16 15 -10 62 3 55 15 -8 12 -35 13
-54 1z"/>
<path d="M3195 640 c-16 -7 -12 -9 18 -9 23 -1 36 3 32 9 -7 12 -23 12 -50 0z"/>
<path d="M3105 610 c-18 -8 -17 -9 8 -9 16 -1 26 3 22 9 -3 6 -7 10 -8 9 -1 0
-11 -4 -22 -9z"/>
<path d="M1625 538 c-15 -22 -14 -23 6 -26 26 -4 44 11 36 32 -9 22 -23 20
-42 -6z"/>
<path d="M1088 507 c-32 -50 -28 -84 9 -93 34 -9 52 11 24 25 -25 14 -28 53
-6 71 16 13 21 40 8 40 -5 -1 -20 -20 -35 -43z"/>
<path d="M2863 543 c9 -2 25 -2 35 0 9 3 1 5 -18 5 -19 0 -27 -2 -17 -5z"/>
<path d="M386 523 c-11 -11 -6 -23 9 -23 8 0 15 4 15 9 0 13 -16 22 -24 14z"/>
<path d="M1374 491 c-36 -9 -44 -14 -77 -43 l-25 -22 30 -39 c30 -37 33 -39
74 -32 35 5 47 2 63 -14 17 -17 34 -21 95 -21 64 0 79 3 102 24 l28 23 -34 19
c-24 12 -54 17 -94 16 -32 -1 -68 4 -78 9 -18 10 -19 12 -3 29 13 15 14 23 5
39 -11 22 -32 25 -86 12z"/>
<path d="M1527 494 c-4 -4 -4 -10 -1 -15 6 -10 34 0 34 12 0 10 -24 12 -33 3z"/>
<path d="M2255 448 c-100 -13 -115 -17 -115 -28 0 -18 133 -12 160 7 14 10 50
21 80 24 l55 6 -55 0 c-30 0 -86 -4 -125 -9z"/>
<path d="M57 379 c-37 -31 -49 -59 -23 -59 21 0 91 33 109 52 48 48 -29 54
-86 7z"/>
</g>
</svg>
