<?xml version="1.0" standalone="no"?>
<!DOCTYPE svg PUBLIC "-//W3C//DTD SVG 20010904//EN"
 "http://www.w3.org/TR/2001/REC-SVG-20010904/DTD/svg10.dtd">
<svg version="1.0" xmlns="http://www.w3.org/2000/svg"
 width="900.000000pt" height="720.000000pt" viewBox="0 0 900.000000 720.000000"
 preserveAspectRatio="xMidYMid meet">
<metadata>
Created by potrace 1.10, written by Peter Selinger 2001-2011
</metadata>
<g transform="translate(0.000000,720.000000) scale(0.100000,-0.100000)"
fill="#000000" stroke="none">
<path d="M4279 6607 c-87 -79 -91 -81 -159 -85 -52 -4 -68 -9 -82 -28 -10 -12
-28 -26 -40 -30 -12 -3 -51 -25 -87 -48 -62 -38 -71 -41 -138 -40 -72 0 -93
-8 -53 -21 11 -3 20 -14 20 -24 0 -10 9 -28 20 -41 11 -13 20 -28 20 -35 0 -7
7 -26 16 -43 8 -18 13 -36 10 -41 -3 -4 3 -16 13 -25 11 -10 17 -25 14 -37 -6
-23 -31 -25 -39 -4 -9 22 -36 -2 -29 -25 3 -9 -1 -23 -10 -30 -8 -7 -15 -23
-15 -36 0 -25 -18 -32 -37 -13 -8 8 -18 6 -37 -6 -26 -17 -28 -17 -49 2 -15
14 -38 21 -77 22 -70 3 -147 28 -165 53 -9 14 -35 24 -82 33 -37 7 -78 16 -90
20 -35 11 -29 -18 12 -59 19 -20 35 -41 35 -47 0 -7 9 -6 25 5 30 20 45 20 45
2 0 -7 7 -19 15 -26 8 -7 15 -23 15 -36 0 -13 6 -25 13 -26 6 0 24 -2 38 -3
14 -1 31 -5 37 -9 17 -10 3 -34 -21 -38 -38 -6 -29 -26 15 -33 24 -4 58 -16
76 -27 38 -23 44 -58 9 -58 -44 0 -61 -38 -31 -72 14 -15 15 -20 3 -34 -21
-25 -96 -10 -128 27 -14 16 -33 29 -43 29 -9 0 -23 9 -31 20 -18 26 -83 60
-114 60 -30 0 -86 -50 -107 -97 -9 -21 -38 -53 -62 -72 -25 -19 -67 -63 -93
-97 -65 -87 -127 -139 -176 -148 -22 -4 -45 -12 -52 -18 -12 -9 -145 16 -168
32 -20 14 -91 19 -130 9 -22 -6 -61 -16 -87 -22 -26 -7 -59 -24 -75 -38 -15
-15 -33 -28 -39 -30 -25 -9 -122 -107 -154 -156 -22 -34 -49 -60 -75 -73 -22
-11 -69 -45 -105 -75 -36 -30 -73 -55 -82 -55 -9 0 -27 -5 -40 -11 -24 -10
-127 10 -152 30 -6 6 -33 13 -59 16 -44 6 -47 5 -57 -20 -8 -20 -15 -25 -37
-23 -26 3 -28 1 -25 -31 2 -19 -2 -45 -9 -57 -10 -20 -10 -27 4 -42 20 -22 22
-68 5 -75 -7 -3 2 -6 20 -6 24 -1 32 -6 32 -19 0 -10 6 -24 13 -31 10 -10 7
-10 -16 -2 -32 12 -61 2 -71 -25 -5 -13 -15 -15 -46 -11 -26 3 -43 1 -50 -8
-6 -7 -31 -16 -56 -20 -45 -6 -45 -6 -38 -41 6 -31 4 -34 -19 -34 -14 0 -32 8
-39 18 -13 18 -93 38 -268 67 -19 3 -54 11 -77 17 -32 8 -50 7 -73 -2 -33 -14
-37 -27 -15 -56 8 -10 15 -30 15 -43 0 -32 66 -91 101 -91 16 0 34 8 41 18 7
9 23 25 35 36 20 16 25 17 39 5 10 -8 23 -29 31 -46 15 -37 32 -41 68 -17 35
23 55 12 55 -31 0 -19 4 -35 9 -35 5 0 13 -9 16 -20 3 -11 13 -20 21 -20 8 0
14 -10 14 -22 0 -37 16 -51 61 -57 32 -4 45 -11 49 -26 10 -37 35 -65 58 -65
30 0 82 -27 82 -43 0 -16 71 -91 129 -136 39 -31 43 -38 38 -68 -5 -29 -2 -35
22 -48 28 -14 71 -81 71 -110 0 -9 6 -24 12 -35 17 -27 1 -52 -40 -66 -18 -5
-37 -15 -44 -22 -7 -7 -19 -12 -27 -12 -9 0 -48 -34 -87 -75 -59 -63 -76 -75
-102 -75 -26 0 -35 -5 -43 -27 -6 -16 -19 -45 -30 -67 -10 -21 -16 -42 -13
-47 11 -19 81 -47 131 -54 29 -4 55 -11 59 -16 3 -5 14 -9 24 -9 26 0 40 -29
40 -82 0 -24 7 -52 15 -62 8 -11 15 -39 15 -63 0 -37 3 -43 21 -43 17 0 20 4
16 23 -23 88 -34 125 -46 145 -15 28 -7 72 14 72 7 0 16 -4 19 -9 3 -4 29 -11
58 -15 45 -6 59 -14 99 -54 31 -32 48 -59 53 -83 7 -41 17 -52 73 -80 48 -24
92 -25 95 -1 2 31 -4 77 -13 94 -7 13 -4 20 11 28 26 14 40 5 40 -23 0 -12 10
-50 22 -84 22 -61 30 -68 71 -65 10 1 27 -3 38 -8 16 -9 17 -15 9 -31 -6 -11
-10 -43 -8 -72 3 -44 7 -54 28 -64 14 -7 36 -30 48 -51 12 -22 35 -45 51 -52
26 -11 28 -14 18 -40 -12 -33 -1 -52 45 -76 40 -21 68 -4 68 40 0 25 -6 35
-26 44 -14 7 -22 17 -19 22 10 16 45 12 45 -5 0 -16 27 -20 48 -6 8 4 13 14
12 22 -6 37 0 42 40 36 29 -4 40 -1 40 8 0 14 45 29 60 20 13 -8 13 -62 -1
-70 -6 -5 -8 -26 -4 -60 7 -51 5 -55 -24 -84 -18 -17 -38 -31 -46 -31 -9 0
-19 -18 -26 -45 -6 -25 -15 -48 -20 -51 -14 -8 -11 -67 6 -115 9 -24 13 -56
10 -71 -6 -23 -2 -29 18 -37 14 -5 31 -18 38 -28 16 -21 58 -23 104 -4 38 16
61 3 58 -33 -2 -31 0 -32 37 -5 20 15 36 20 54 15 21 -5 28 -1 41 24 12 24 22
30 46 30 21 0 43 11 67 31 36 32 45 33 139 14 25 -6 34 -3 45 14 17 27 24 27
32 -4 3 -13 15 -29 26 -35 15 -8 18 -17 13 -40 -3 -18 0 -36 8 -46 7 -9 18
-25 24 -37 5 -12 31 -28 59 -38 27 -9 53 -24 58 -33 5 -9 17 -16 27 -16 10 0
28 -11 41 -25 29 -31 73 -33 97 -5 10 11 26 20 37 20 11 0 27 6 35 14 17 15
160 61 166 54 3 -2 10 -39 17 -82 9 -57 9 -82 1 -96 -7 -9 -8 -21 -4 -26 4 -5
13 -29 20 -54 7 -25 17 -53 22 -62 5 -10 9 -26 9 -36 0 -10 4 -22 9 -27 5 -6
11 -30 14 -55 3 -25 13 -72 23 -105 16 -55 21 -62 63 -83 52 -25 86 -28 98 -8
11 18 47 36 75 36 23 0 45 -19 66 -56 6 -10 16 -19 24 -19 7 -1 31 -9 53 -19
69 -32 79 -36 100 -33 16 2 21 -5 23 -37 3 -37 4 -38 35 -33 18 3 44 9 59 12
42 11 48 -19 13 -55 -34 -35 -27 -48 18 -33 17 6 52 11 76 11 25 -1 46 5 51
12 7 11 11 11 24 1 8 -7 24 -10 36 -6 23 7 26 21 8 29 -7 3 -4 4 7 3 14 -1 19
3 17 14 -4 27 78 103 126 117 47 14 50 30 10 49 -45 23 -54 40 -35 73 9 15 17
40 17 55 0 25 2 26 43 20 26 -3 51 -1 67 8 21 11 25 19 22 52 -3 33 1 42 30
68 18 16 51 38 73 48 22 11 52 29 66 40 36 28 175 47 195 27 20 -20 25 -92 28
-388 3 -291 3 -280 16 -280 6 0 10 60 11 158 0 86 8 218 17 292 15 114 20 136
37 145 32 16 82 68 89 91 6 21 44 44 72 44 8 0 31 9 51 20 21 11 45 20 54 20
9 0 22 7 29 15 7 8 17 15 22 15 5 0 29 9 54 20 24 12 52 19 61 18 16 -3 24 12
39 70 2 6 18 12 36 12 18 0 47 9 63 20 42 29 93 50 121 50 13 0 28 8 33 17 5
10 38 27 73 37 35 10 77 30 95 42 40 30 76 31 95 2 12 -17 27 -22 77 -26 49
-4 64 -9 72 -25 10 -17 18 -19 69 -14 50 6 59 4 77 -16 11 -12 26 -40 34 -62
l12 -40 9 32 c5 18 21 41 36 50 62 40 71 58 60 117 -4 24 19 33 25 9 3 -10 5
6 6 35 1 33 5 52 13 52 16 0 108 101 108 118 0 11 8 13 34 8 24 -5 37 -2 46 9
7 8 27 15 44 15 51 0 117 25 137 51 18 22 20 23 30 7 5 -10 14 -18 19 -18 13
0 50 37 50 50 0 6 11 10 24 10 13 0 26 7 30 15 8 22 33 18 39 -5 3 -11 13 -20
23 -20 31 0 94 33 94 50 0 9 5 21 11 27 8 8 8 17 0 31 -13 24 9 48 35 38 12
-5 14 -14 9 -46 -6 -36 -5 -40 14 -40 12 0 29 4 39 10 9 5 28 14 42 20 100 40
129 98 87 174 -16 28 -22 48 -15 52 9 6 7 40 -8 112 -5 28 -4 32 14 32 28 0
35 14 33 72 -1 42 3 51 19 55 11 3 20 9 20 14 0 5 13 7 30 4 26 -5 30 -2 35
22 4 16 12 39 19 53 13 27 10 80 -4 80 -5 0 -11 -10 -13 -22 -3 -14 -5 -9 -6
15 -1 24 -6 37 -15 37 -10 0 -13 -15 -10 -65 2 -58 1 -64 -12 -50 -9 8 -30 15
-48 15 -38 0 -60 20 -52 48 4 12 -4 27 -24 47 -28 27 -29 29 -13 48 17 18 17
19 0 28 -23 13 -21 25 8 54 28 29 85 34 105 10 7 -8 16 -12 22 -9 5 3 16 0 24
-7 14 -11 15 -5 13 52 -2 35 0 69 3 75 4 6 0 33 -8 62 -11 38 -25 59 -54 82
-45 36 -59 37 -89 9 -16 -15 -22 -30 -19 -50 3 -21 -1 -30 -19 -40 -20 -11
-26 -9 -46 12 -13 13 -31 29 -41 34 -17 10 -17 17 -7 80 14 92 49 122 78 65 8
-16 9 -28 2 -36 -12 -14 2 -26 18 -16 27 18 23 49 -13 90 -31 35 -39 40 -56
31 -29 -15 -48 -4 -48 29 0 16 -7 35 -15 42 -8 7 -15 19 -15 26 0 8 -4 14 -8
14 -5 0 -34 38 -65 85 -77 115 -115 139 -222 141 -54 1 -98 9 -135 23 -30 12
-55 21 -56 21 -1 0 -4 -9 -7 -20 -3 -12 -14 -20 -26 -20 -11 0 -25 -9 -31 -20
-14 -25 -32 -25 -55 0 -18 20 -46 26 -59 13 -14 -15 -96 -12 -96 3 0 7 -11 21
-25 30 -19 13 -23 20 -14 30 15 19 5 43 -42 94 -22 25 -49 61 -59 80 -24 46
-60 66 -89 51 -12 -7 -21 -21 -21 -36 0 -13 -5 -27 -11 -31 -7 -4 -9 2 -7 16
4 28 -11 35 -37 16 -18 -13 -18 -16 -5 -41 13 -25 13 -28 -8 -45 -22 -18 -29
-40 -13 -40 5 0 14 6 20 14 7 8 23 17 38 21 20 5 32 0 53 -22 15 -15 25 -33
23 -40 -3 -8 2 -13 14 -13 26 0 48 -37 32 -56 -17 -21 -45 -17 -70 9 -21 22
-21 22 -15 1 9 -30 -16 -47 -54 -39 -16 4 -35 15 -40 25 -5 10 -24 23 -42 29
-32 11 -38 9 -52 -24 -7 -17 -26 19 -20 38 8 26 -24 57 -58 57 -29 0 -37 -17
-18 -36 8 -8 6 -15 -5 -24 -8 -7 -15 -21 -15 -31 0 -25 -37 -25 -69 0 -21 16
-23 24 -19 63 5 44 4 45 -23 46 -19 0 -33 -6 -39 -18 -8 -15 -15 -17 -33 -11
-12 5 -30 12 -40 15 -15 5 -16 9 -6 27 14 27 -1 39 -49 39 -21 0 -31 4 -26 11
3 6 15 9 25 6 29 -8 32 9 4 27 -26 17 -35 68 -15 81 15 9 2 25 -20 25 -10 0
-21 -8 -24 -17 -6 -15 -9 -14 -19 7 -7 14 -23 26 -35 28 -12 2 -22 6 -22 9 0
11 51 53 66 53 22 0 54 37 54 63 0 35 24 72 44 69 10 -2 26 4 36 13 16 15 18
15 24 -1 4 -10 2 -21 -5 -24 -16 -10 5 -22 25 -14 9 3 32 -1 51 -10 62 -30 69
-6 31 116 -23 73 -23 77 -6 93 16 14 18 14 30 0 10 -12 23 -15 51 -10 33 6 40
3 56 -22 10 -15 25 -35 33 -43 8 -8 25 -29 37 -45 l22 -30 1 30 c0 17 -7 41
-16 53 -15 22 -15 47 1 85 5 12 3 17 -8 17 -9 0 -18 13 -23 33 -3 17 -17 45
-30 60 -13 16 -24 33 -24 39 0 10 -121 133 -138 140 -4 1 -20 19 -35 38 -30
41 -28 74 6 102 18 14 19 19 8 32 -10 12 -11 19 -2 30 16 20 0 80 -22 84 -10
2 -26 -7 -36 -19 l-18 -23 -16 30 -15 29 -8 -29 c-5 -21 -3 -31 10 -38 17 -10
23 -68 6 -68 -6 0 -18 16 -27 35 -9 19 -21 35 -26 35 -5 0 -7 6 -4 13 5 13 -9
15 -123 19 -59 3 -153 -32 -218 -80 -30 -23 -39 -24 -159 -23 -110 1 -135 -1
-181 -20 -45 -19 -55 -20 -63 -8 -6 10 -9 11 -9 1 0 -15 -60 -53 -72 -46 -5 3
-33 10 -61 14 -95 16 -152 29 -192 44 -22 8 -51 16 -65 16 -14 1 -50 13 -80
28 -43 21 -59 36 -74 67 -14 30 -16 43 -7 57 18 29 13 48 -13 48 -14 0 -28 5
-32 12 -5 7 -12 -4 -19 -28 -8 -30 -16 -40 -35 -42 -14 -2 -39 -17 -58 -33
-20 -18 -44 -29 -62 -29 -17 0 -30 -3 -30 -7 0 -11 -59 -43 -78 -43 -10 0 -34
-11 -54 -25 -20 -14 -50 -25 -67 -25 -16 0 -33 -4 -36 -10 -3 -5 -13 -10 -22
-10 -9 0 -24 -6 -32 -14 -9 -8 -44 -20 -78 -27 -60 -12 -62 -12 -97 15 -20 15
-36 33 -36 40 0 8 -17 31 -38 52 -21 22 -41 46 -44 55 -4 9 -15 18 -25 21 -23
6 -63 -8 -63 -22 0 -5 -7 -10 -16 -10 -12 0 -14 7 -9 33 11 50 23 65 52 69 22
2 28 8 28 28 0 35 23 71 43 69 9 -1 29 3 43 9 15 6 36 8 48 5 17 -4 21 -1 21
21 0 21 5 26 25 26 14 0 28 -7 31 -15 8 -20 27 -19 80 5 87 40 95 42 115 25
22 -21 129 -37 135 -21 11 28 -62 134 -118 172 -33 23 -38 32 -38 65 0 33 -8
47 -55 96 -30 32 -55 66 -55 75 0 32 20 70 34 65 9 -4 29 12 52 41 46 58 63
72 86 72 21 0 123 74 131 94 8 19 -4 64 -19 77 -8 6 -14 20 -14 30 0 15 -7 19
-35 19 -22 0 -38 6 -41 15 -9 22 -25 18 -65 -18z m-479 -1264 c0 -10 -4 -24
-9 -31 -11 -18 -36 12 -27 33 8 21 36 19 36 -2z m10 -68 c18 -22 4 -77 -26
-98 -26 -20 -59 -19 -59 0 0 7 -6 18 -12 25 -19 18 -16 23 14 37 15 7 33 21
41 32 16 23 25 24 42 4z m2353 -311 c4 -4 -3 -20 -14 -36 -17 -23 -24 -26 -35
-17 -20 16 -17 47 4 52 27 7 38 7 45 1z m-4713 -99 c0 -8 -7 -15 -15 -15 -8 0
-15 7 -15 15 0 8 7 15 15 15 8 0 15 -7 15 -15z m4550 -15 c6 -11 7 -20 2 -20
-10 0 -32 21 -32 32 0 16 19 8 30 -12z m-10 -50 c0 -18 -26 -40 -49 -40 -12 0
-15 43 -4 53 3 4 17 7 30 7 16 0 23 -6 23 -20z m-210 -114 c0 -8 -4 -17 -9
-21 -12 -7 -24 12 -16 25 9 15 25 12 25 -4z m130 -65 c0 -15 -16 -22 -34 -15
-25 9 -19 24 9 24 14 0 25 -4 25 -9z m-88 -18 c10 -9 18 -25 18 -36 0 -17 -5
-19 -36 -14 -46 8 -47 9 -33 41 14 30 25 32 51 9z m-16 -146 c-4 -25 -14 -51
-21 -57 -8 -7 -15 -20 -15 -30 0 -16 -3 -17 -25 -7 -16 8 -25 20 -24 32 3 50
-1 64 -23 67 -27 4 -34 23 -12 32 10 4 27 -4 47 -24 36 -35 51 -38 42 -10 -3
10 -1 29 5 41 19 34 34 8 26 -44z m-191 -54 c-18 -13 -18 -14 3 -41 12 -15 27
-37 34 -49 12 -24 41 -38 58 -28 5 3 10 17 10 31 0 15 6 24 15 24 20 0 20 -49
-1 -78 -9 -14 -26 -22 -43 -22 -21 0 -35 -9 -52 -35 -27 -40 -50 -44 -71 -14
-12 19 -17 20 -36 10 -12 -6 -22 -21 -22 -32 0 -23 -41 -45 -67 -35 -16 7 -16
9 7 26 26 20 26 21 -5 38 -18 10 -18 12 13 18 36 7 38 12 17 40 -8 10 -15 27
-15 37 0 23 46 23 58 0 8 -14 11 -13 17 8 4 13 11 26 16 29 5 3 10 21 11 40 2
26 9 38 28 46 32 14 49 5 25 -13z m485 -64 c0 -20 -49 -71 -64 -66 -20 7 -18
46 5 76 18 25 24 28 40 18 11 -7 19 -19 19 -28z m425 -80 c-8 -12 -35 -12 -35
0 0 11 22 20 33 14 4 -2 5 -9 2 -14z m123 -31 c16 -14 15 -33 -4 -49 -14 -11
-13 -14 10 -26 34 -18 38 -73 6 -73 -15 0 -20 7 -20 25 0 14 -4 25 -8 25 -18
0 -64 48 -53 54 6 4 11 16 11 27 0 14 -7 19 -27 20 l-28 1 30 8 c32 8 63 3 83
-12z m234 -60 c-13 -13 -26 8 -17 30 6 16 7 16 17 -1 7 -13 7 -22 0 -29z
m-359 -30 c4 -28 11 -56 17 -62 15 -15 12 -26 -8 -26 -24 0 -46 58 -30 78 9
10 9 18 0 32 -10 17 -7 30 8 30 4 0 10 -23 13 -52z m-983 -25 c0 -5 -5 -15
-10 -23 -8 -12 -10 -11 -10 8 0 12 5 22 10 22 6 0 10 -3 10 -7z m-122 -16 c7
-8 7 -17 -2 -30 -19 -25 -26 -21 -26 13 0 32 11 38 28 17z m122 -92 c0 -16
-27 -32 -37 -22 -3 4 -3 13 0 22 8 20 37 20 37 0z m1376 -20 c3 -14 12 -25 19
-25 7 0 18 -6 24 -13 8 -11 7 -18 -7 -31 -22 -19 -32 -12 -32 21 0 27 -24 31
-39 6 -17 -31 -33 -3 -20 35 14 40 46 44 55 7z m121 -85 c6 -24 19 -26 27 -5
9 24 33 17 41 -12 9 -40 44 -73 76 -73 36 0 42 -21 13 -49 -20 -20 -23 -29
-18 -60 4 -20 15 -46 25 -59 17 -22 17 -24 -7 -59 -13 -20 -23 -41 -21 -47 7
-23 63 -39 124 -38 54 2 64 -1 77 -20 9 -12 16 -43 16 -68 0 -66 8 -84 40 -98
40 -18 73 -1 64 33 -8 33 15 41 55 20 17 -8 31 -18 31 -22 0 -17 -36 -43 -58
-43 -14 0 -32 -7 -41 -15 -39 -36 -79 -69 -118 -97 -45 -33 -56 -50 -57 -87
-1 -36 -67 -85 -113 -84 -20 1 -54 -5 -76 -13 -30 -11 -43 -11 -53 -3 -10 8
-18 8 -26 1 -8 -5 -22 -6 -34 -2 -17 7 -23 20 -28 69 -5 47 -12 63 -27 72 -19
10 -20 12 -4 29 14 15 14 22 4 42 -7 12 -15 30 -19 38 -4 8 -19 16 -34 18 -33
4 -33 20 1 94 23 51 30 58 55 58 17 0 27 4 23 10 -3 6 -16 10 -29 10 -12 0
-28 6 -35 13 -11 10 -14 10 -18 0 -5 -14 -33 -18 -33 -5 0 11 41 45 73 61 34
18 38 64 7 81 -11 6 -20 19 -20 30 0 10 -6 23 -12 27 -7 4 -19 18 -26 31 -10
19 -10 23 3 28 26 10 17 34 -15 41 -25 5 -28 8 -18 20 9 11 9 19 -1 35 -11 17
-10 23 3 36 14 14 17 14 35 -2 16 -15 18 -21 8 -37 -10 -16 -9 -21 3 -29 38
-24 80 3 61 39 -18 33 -12 64 17 88 34 28 52 29 59 3z m203 -165 c0 -27 -1
-28 -24 -19 -12 5 -13 9 -3 25 16 26 27 24 27 -6z m-320 -169 c0 -15 -18 -31
-26 -23 -7 7 7 37 17 37 5 0 9 -6 9 -14z m-57 -21 c-4 -15 -36 -12 -41 3 -3 9
3 13 19 10 13 -1 23 -7 22 -13z m447 0 c0 -16 -35 -21 -44 -6 -8 12 4 21 26
21 10 0 18 -7 18 -15z m-4402 -87 c7 -7 12 -18 12 -25 0 -10 -5 -10 -25 -1
-26 12 -34 38 -12 38 7 0 18 -5 25 -12z m87 -58 c3 -5 1 -19 -6 -31 -9 -17
-13 -19 -20 -8 -14 22 -11 49 5 49 8 0 18 -4 21 -10z m-112 -7 c-18 -7 -16
-43 2 -43 8 0 15 5 15 10 0 6 5 10 10 10 6 0 8 -10 4 -24 -4 -18 -1 -27 14
-35 11 -6 27 -9 34 -6 9 4 18 -7 26 -28 15 -41 15 -60 2 -52 -17 11 -60 -37
-60 -67 0 -23 -4 -28 -24 -28 -16 0 -27 -7 -31 -20 -9 -28 -65 -71 -89 -69
-12 2 -31 -3 -43 -9 -20 -11 -29 -9 -63 10 -44 25 -60 60 -41 90 7 11 9 33 6
51 -6 29 -3 33 24 44 24 9 30 17 29 34 -2 15 5 27 19 34 13 7 31 19 41 28 10
10 23 17 28 17 6 0 23 14 39 30 16 17 38 30 49 29 12 0 15 -3 9 -6z m4702
-133 c3 -5 16 -10 27 -10 20 0 21 -1 3 -20 -26 -29 -65 -27 -65 3 0 34 21 50
35 27z m-4990 -108 c0 -18 -20 -15 -23 4 -3 10 1 15 10 12 7 -3 13 -10 13 -16z
m4795 3 c0 -8 -4 -15 -10 -15 -5 0 -10 7 -10 15 0 8 5 15 10 15 6 0 10 -7 10
-15z m-4529 -232 c-9 -16 -10 -14 -11 12 0 21 3 26 11 18 8 -8 8 -16 0 -30z
m4908 -34 c-25 -16 -32 -9 -13 12 12 13 20 16 22 9 3 -7 -2 -16 -9 -21z
m-4869 -34 c48 -25 34 -52 -20 -40 -23 5 -30 12 -30 31 0 28 10 30 50 9z m-62
-253 c18 -24 11 -56 -13 -60 -11 -1 -32 9 -47 23 -33 30 -33 29 -12 50 18 18
52 12 72 -13z"/>
<path d="M5603 4259 c-27 -10 -30 -27 -7 -36 19 -7 37 9 32 30 -2 11 -9 12
-25 6z"/>
<path d="M7039 3599 c-8 -15 -14 -18 -22 -10 -6 6 -17 11 -24 11 -23 0 -14
-25 16 -42 34 -19 45 -12 56 35 9 33 -9 37 -26 6z"/>
<path d="M7075 3543 c-34 -8 -42 -23 -21 -39 17 -12 22 -12 38 3 10 9 18 22
18 30 0 14 -2 14 -35 6z"/>
<path d="M4502 5798 c2 -13 15 -29 31 -36 16 -8 31 -20 34 -28 6 -17 43 -19
43 -1 0 13 -10 22 -64 65 -36 28 -48 28 -44 0z"/>
<path d="M6095 5639 c-4 -6 -4 -13 -1 -16 8 -8 36 5 36 17 0 13 -27 13 -35 -1z"/>
<path d="M6480 4461 c-7 -14 -7 -22 1 -26 13 -8 15 -6 23 23 9 27 -9 30 -24 3z"/>
<path d="M1052 4258 c-8 -8 -8 -15 -1 -24 14 -17 39 -6 39 17 0 21 -20 25 -38
7z"/>
<path d="M1159 4109 c-19 -19 -20 -23 -5 -37 14 -14 17 -14 36 3 11 10 20 24
20 30 0 23 -30 25 -51 4z"/>
<path d="M1340 3725 c-10 -12 -10 -21 -2 -40 14 -29 42 -32 65 -7 22 24 21 39
-2 52 -27 14 -46 13 -61 -5z"/>
<path d="M1569 2966 c-10 -20 -9 -29 2 -42 10 -12 13 -41 11 -100 -1 -45 2
-85 7 -88 12 -8 20 71 17 168 -2 84 -17 108 -37 62z"/>
<path d="M1219 2810 c-32 -31 -33 -57 -3 -91 8 -8 14 -21 14 -27 0 -6 11 -19
25 -28 24 -16 27 -16 45 1 11 10 20 24 20 30 0 7 7 18 15 25 35 29 -16 120
-66 120 -11 0 -34 -13 -50 -30z"/>
<path d="M1818 2824 c-9 -9 -30 -19 -48 -23 l-31 -6 44 -31 c77 -55 116 -56
137 -5 10 24 9 33 -5 55 -20 31 -71 36 -97 10z"/>
<path d="M1551 2703 c-8 -15 -13 -16 -30 -5 -18 11 -21 10 -21 -7 0 -21 18
-31 55 -31 29 0 36 10 28 38 -7 27 -19 28 -32 5z"/>
<path d="M1270 2576 c-17 -21 -9 -60 14 -64 30 -6 41 13 26 47 -14 35 -22 38
-40 17z"/>
<path d="M1701 2465 c-20 -34 -20 -37 -4 -70 20 -43 53 -46 104 -12 35 24 39
40 20 90 -9 24 -16 27 -55 27 -40 0 -46 -3 -65 -35z"/>
<path d="M1250 2424 c0 -12 -6 -15 -25 -10 -27 7 -34 -11 -13 -32 20 -20 43
-14 66 18 28 37 28 40 -3 40 -16 0 -25 -6 -25 -16z"/>
<path d="M1416 2285 c-20 -21 -21 -64 -1 -71 8 -4 27 -3 41 0 20 5 25 12 22
33 -2 14 -13 32 -24 40 -19 12 -24 12 -38 -2z"/>
<path d="M3110 2195 c7 -8 16 -15 21 -15 5 0 9 7 9 15 0 9 -9 15 -21 15 -18 0
-19 -2 -9 -15z"/>
<path d="M1696 2167 c-27 -20 -17 -59 17 -71 36 -13 61 2 65 39 5 42 -42 61
-82 32z"/>
<path d="M6772 1043 c-41 -46 -22 -103 38 -117 37 -9 85 36 70 64 -6 11 -15
20 -20 20 -6 0 -10 12 -10 26 0 18 -5 24 -17 22 -10 -1 -23 0 -28 4 -6 3 -20
-5 -33 -19z"/>
<path d="M5326 902 c-21 -25 -20 -39 4 -47 37 -12 52 14 26 47 -12 17 -14 17
-30 0z"/>
</g>
</svg>
