<svg xmlns="http://www.w3.org/2000/svg" viewBox="0 0 404.23 233.34"><defs><style>.a{stroke:#1d1d1b;stroke-miterlimit:10;}</style></defs><rect class="a" x="402.32" y="129.44" width="1.41" height="1.88"/><polygon class="a" points="107.95 232.84 107.95 137.26 118.04 112.58 167.22 232.84 174.74 232.84 121.8 103.38 136.35 67.81 207.78 232.84 215.41 232.84 208.94 217.9 297.85 0.5 290.33 0.5 205.08 208.97 140.06 58.74 163.88 0.5 156.36 0.5 107.95 118.88 107.95 0.5 101.43 0.5 101.43 232.84 107.95 232.84"/><path class="a" d="M8.67,266.16l23.24-135.9h29.7l23.23,135.9h6.7L51.82,33.82H41.7L2,266.16ZM46.76,43.42,60,121.07H33.48Z" transform="translate(-1.38 -33.32)"/></svg>